<mxfile host="app.diagrams.net" modified="2023-08-19T00:28:52.248Z" agent="Mozilla/5.0 (Windows NT 10.0; Win64; x64) AppleWebKit/537.36 (KHTML, like Gecko) Chrome/118.0.0.0 Safari/537.36" etag="rAlslgQhKssmv81n_ieQ" version="21.6.8" type="device" pages="3">
  <diagram name="Single thread" id="-Z_ZNnGJKJPdtMaKgUV3">
    <mxGraphModel dx="195" dy="460" grid="1" gridSize="10" guides="1" tooltips="1" connect="1" arrows="1" fold="1" page="1" pageScale="1" pageWidth="827" pageHeight="1169" math="0" shadow="0">
      <root>
        <mxCell id="0" />
        <mxCell id="1" parent="0" />
        <mxCell id="igwCPFnMIaGaWUZ2i6uX-2" style="edgeStyle=orthogonalEdgeStyle;rounded=0;orthogonalLoop=1;jettySize=auto;html=1;" parent="1" source="igwCPFnMIaGaWUZ2i6uX-1" edge="1">
          <mxGeometry relative="1" as="geometry">
            <mxPoint x="280" y="260" as="targetPoint" />
          </mxGeometry>
        </mxCell>
        <mxCell id="igwCPFnMIaGaWUZ2i6uX-3" style="edgeStyle=orthogonalEdgeStyle;rounded=0;orthogonalLoop=1;jettySize=auto;html=1;" parent="1" source="igwCPFnMIaGaWUZ2i6uX-1" edge="1">
          <mxGeometry relative="1" as="geometry">
            <mxPoint x="560" y="260" as="targetPoint" />
          </mxGeometry>
        </mxCell>
        <mxCell id="igwCPFnMIaGaWUZ2i6uX-1" value="&lt;font style=&quot;font-size: 15px;&quot;&gt;&lt;b&gt;Javascript is a single thread language&lt;/b&gt;&lt;/font&gt;" style="rounded=1;whiteSpace=wrap;html=1;fillColor=#fff2cc;strokeColor=#d6b656;" parent="1" vertex="1">
          <mxGeometry x="316" y="80" width="196" height="70" as="geometry" />
        </mxCell>
        <mxCell id="igwCPFnMIaGaWUZ2i6uX-4" value="&lt;span style=&quot;font-size: 15px;&quot;&gt;&lt;b&gt;processing one task a single point of time&lt;/b&gt;&lt;/span&gt;" style="rounded=1;whiteSpace=wrap;html=1;fillColor=#fff2cc;strokeColor=#d6b656;" parent="1" vertex="1">
          <mxGeometry x="190" y="260" width="196" height="70" as="geometry" />
        </mxCell>
        <mxCell id="igwCPFnMIaGaWUZ2i6uX-5" value="&lt;i&gt;The JavaScript engine executes a script from the top of the file and works its way down. It creates the context&lt;/i&gt;" style="rounded=1;whiteSpace=wrap;html=1;fillColor=#fff2cc;strokeColor=#d6b656;align=center;" parent="1" vertex="1">
          <mxGeometry x="400" y="260" width="450" height="70" as="geometry" />
        </mxCell>
      </root>
    </mxGraphModel>
  </diagram>
  <diagram id="PSfooRn23FuuDgPU0xSL" name="execution-context">
    <mxGraphModel dx="2355" dy="783" grid="1" gridSize="10" guides="1" tooltips="1" connect="1" arrows="1" fold="1" page="1" pageScale="1" pageWidth="827" pageHeight="1169" math="0" shadow="0">
      <root>
        <mxCell id="0" />
        <mxCell id="1" parent="0" />
        <mxCell id="gI_HUv2wped4B2F6I5z_-1" value="declare x and initialize it by 10" style="shape=step;perimeter=stepPerimeter;whiteSpace=wrap;html=1;fixedSize=1;" vertex="1" parent="1">
          <mxGeometry x="-110" y="100" width="250" height="80" as="geometry" />
        </mxCell>
        <mxCell id="gI_HUv2wped4B2F6I5z_-4" value="declare the function accept argument and return a value" style="shape=step;perimeter=stepPerimeter;whiteSpace=wrap;html=1;fixedSize=1;" vertex="1" parent="1">
          <mxGeometry x="-110" y="200" width="370" height="80" as="geometry" />
        </mxCell>
        <mxCell id="gI_HUv2wped4B2F6I5z_-5" value="Call the function and store the result in a y variable" style="shape=step;perimeter=stepPerimeter;whiteSpace=wrap;html=1;fixedSize=1;" vertex="1" parent="1">
          <mxGeometry x="-110" y="300" width="370" height="80" as="geometry" />
        </mxCell>
        <mxCell id="gI_HUv2wped4B2F6I5z_-6" value="output the result" style="shape=step;perimeter=stepPerimeter;whiteSpace=wrap;html=1;fixedSize=1;" vertex="1" parent="1">
          <mxGeometry x="-110" y="400" width="370" height="80" as="geometry" />
        </mxCell>
        <mxCell id="gI_HUv2wped4B2F6I5z_-21" style="edgeStyle=orthogonalEdgeStyle;rounded=0;orthogonalLoop=1;jettySize=auto;html=1;" edge="1" parent="1" source="gI_HUv2wped4B2F6I5z_-7">
          <mxGeometry relative="1" as="geometry">
            <mxPoint x="1180" y="200" as="targetPoint" />
          </mxGeometry>
        </mxCell>
        <mxCell id="gI_HUv2wped4B2F6I5z_-7" value="Ceation phase" style="shape=note;html=1;size=15;strokeWidth=2;align=left;spacingLeft=5;whiteSpace=wrap;align=center;" vertex="1" parent="1">
          <mxGeometry x="750" y="190" width="120" height="40" as="geometry" />
        </mxCell>
        <mxCell id="gI_HUv2wped4B2F6I5z_-8" value="Action" style="shape=rect;html=1;rounded=1;strokeWidth=2;whiteSpace=wrap;align=center;" vertex="1" parent="1">
          <mxGeometry x="760" y="275" width="100" height="50" as="geometry" />
        </mxCell>
        <mxCell id="gI_HUv2wped4B2F6I5z_-41" style="edgeStyle=orthogonalEdgeStyle;rounded=0;orthogonalLoop=1;jettySize=auto;html=1;entryX=0;entryY=0.75;entryDx=0;entryDy=0;entryPerimeter=0;" edge="1" parent="1" source="gI_HUv2wped4B2F6I5z_-9" target="gI_HUv2wped4B2F6I5z_-37">
          <mxGeometry relative="1" as="geometry" />
        </mxCell>
        <mxCell id="gI_HUv2wped4B2F6I5z_-9" value="Execution phase" style="shape=note;html=1;size=15;strokeWidth=2;align=left;spacingLeft=5;whiteSpace=wrap;align=center;" vertex="1" parent="1">
          <mxGeometry x="770" y="350" width="130" height="40" as="geometry" />
        </mxCell>
        <mxCell id="gI_HUv2wped4B2F6I5z_-10" value="" style="edgeStyle=elbowEdgeStyle;html=1;elbow=horizontal;rounded=0;endArrow=none;" edge="1" source="gI_HUv2wped4B2F6I5z_-7" target="gI_HUv2wped4B2F6I5z_-8" parent="1">
          <mxGeometry relative="1" as="geometry" />
        </mxCell>
        <mxCell id="gI_HUv2wped4B2F6I5z_-11" value="" style="edgeStyle=elbowEdgeStyle;html=1;elbow=horizontal;rounded=0;endArrow=none;" edge="1" source="gI_HUv2wped4B2F6I5z_-8" target="gI_HUv2wped4B2F6I5z_-9" parent="1">
          <mxGeometry relative="1" as="geometry" />
        </mxCell>
        <mxCell id="gI_HUv2wped4B2F6I5z_-20" style="edgeStyle=orthogonalEdgeStyle;rounded=0;orthogonalLoop=1;jettySize=auto;html=1;" edge="1" parent="1" source="gI_HUv2wped4B2F6I5z_-12" target="gI_HUv2wped4B2F6I5z_-19">
          <mxGeometry relative="1" as="geometry" />
        </mxCell>
        <mxCell id="gI_HUv2wped4B2F6I5z_-12" value="Execute the javascript code" style="html=1;shape=mxgraph.sysml.isControl;whiteSpace=wrap;align=center;" vertex="1" parent="1">
          <mxGeometry x="400" y="265" width="200" height="60" as="geometry" />
        </mxCell>
        <mxCell id="gI_HUv2wped4B2F6I5z_-17" style="edgeStyle=orthogonalEdgeStyle;rounded=0;orthogonalLoop=1;jettySize=auto;html=1;entryX=0.04;entryY=0.517;entryDx=0;entryDy=0;entryPerimeter=0;" edge="1" parent="1" source="gI_HUv2wped4B2F6I5z_-16" target="gI_HUv2wped4B2F6I5z_-12">
          <mxGeometry relative="1" as="geometry" />
        </mxCell>
        <mxCell id="gI_HUv2wped4B2F6I5z_-16" value="Steps" style="html=1;shape=mxgraph.sysml.actParamNode;align=left;spacingLeft=15;verticalAlign=top;spacingTop=-3;" vertex="1" parent="1">
          <mxGeometry x="-190" y="60" width="530" height="470" as="geometry" />
        </mxCell>
        <mxCell id="gI_HUv2wped4B2F6I5z_-19" value="Context&lt;br&gt;" style="html=1;shape=mxgraph.sysml.actParamNode;align=left;spacingLeft=15;verticalAlign=top;spacingTop=-3;" vertex="1" parent="1">
          <mxGeometry x="670" y="130" width="300" height="340" as="geometry" />
        </mxCell>
        <mxCell id="gI_HUv2wped4B2F6I5z_-39" style="edgeStyle=orthogonalEdgeStyle;rounded=0;orthogonalLoop=1;jettySize=auto;html=1;entryX=0.5;entryY=0;entryDx=0;entryDy=0;entryPerimeter=0;" edge="1" parent="1" source="gI_HUv2wped4B2F6I5z_-22" target="gI_HUv2wped4B2F6I5z_-37">
          <mxGeometry relative="1" as="geometry" />
        </mxCell>
        <mxCell id="gI_HUv2wped4B2F6I5z_-22" value="" style="html=1;outlineConnect=0;whiteSpace=wrap;fillColor=#99ffff;shape=mxgraph.archimate3.application;appType=serv;archiType=rounded" vertex="1" parent="1">
          <mxGeometry x="1190" y="110" width="370" height="380" as="geometry" />
        </mxCell>
        <mxCell id="gI_HUv2wped4B2F6I5z_-23" value="Creation phase" style="text;html=1;strokeColor=none;fillColor=none;align=center;verticalAlign=middle;whiteSpace=wrap;rounded=0;" vertex="1" parent="1">
          <mxGeometry x="1340" y="125" width="170" height="30" as="geometry" />
        </mxCell>
        <mxCell id="gI_HUv2wped4B2F6I5z_-24" value="Create the global object" style="html=1;outlineConnect=0;whiteSpace=wrap;fillColor=#d5e8d4;shape=mxgraph.archimate3.service;strokeColor=#82b366;" vertex="1" parent="1">
          <mxGeometry x="1330" y="155" width="160" height="35" as="geometry" />
        </mxCell>
        <mxCell id="gI_HUv2wped4B2F6I5z_-28" value="Create the this object and bind it globally" style="html=1;outlineConnect=0;whiteSpace=wrap;fillColor=#d5e8d4;shape=mxgraph.archimate3.service;strokeColor=#82b366;" vertex="1" parent="1">
          <mxGeometry x="1330" y="200" width="160" height="35" as="geometry" />
        </mxCell>
        <mxCell id="gI_HUv2wped4B2F6I5z_-29" value="" style="strokeWidth=2;html=1;shape=mxgraph.flowchart.annotation_2;align=left;labelPosition=right;pointerEvents=1;" vertex="1" parent="1">
          <mxGeometry x="1280" y="135" width="50" height="155" as="geometry" />
        </mxCell>
        <mxCell id="gI_HUv2wped4B2F6I5z_-31" value="Hoisting" style="html=1;outlineConnect=0;whiteSpace=wrap;fillColor=#99ffff;shape=mxgraph.archimate3.application;appType=collab;archiType=square;" vertex="1" parent="1">
          <mxGeometry x="1220" y="148" width="60" height="75" as="geometry" />
        </mxCell>
        <mxCell id="gI_HUv2wped4B2F6I5z_-32" value="Setup the memory for heap references" style="html=1;outlineConnect=0;whiteSpace=wrap;fillColor=#d5e8d4;shape=mxgraph.archimate3.service;strokeColor=#82b366;" vertex="1" parent="1">
          <mxGeometry x="1350" y="312.5" width="190" height="35" as="geometry" />
        </mxCell>
        <mxCell id="gI_HUv2wped4B2F6I5z_-33" value="Store the function declaration in the heap" style="html=1;outlineConnect=0;whiteSpace=wrap;fillColor=#d5e8d4;shape=mxgraph.archimate3.service;strokeColor=#82b366;" vertex="1" parent="1">
          <mxGeometry x="1350" y="360" width="190" height="35" as="geometry" />
        </mxCell>
        <mxCell id="gI_HUv2wped4B2F6I5z_-34" value="the function now is in the global context and it&#39;s undefined" style="html=1;outlineConnect=0;whiteSpace=wrap;fillColor=#d5e8d4;shape=mxgraph.archimate3.service;strokeColor=#82b366;" vertex="1" parent="1">
          <mxGeometry x="1350" y="410" width="190" height="35" as="geometry" />
        </mxCell>
        <mxCell id="gI_HUv2wped4B2F6I5z_-35" value="x and y are added in the global context and it&#39;s values is undefinded" style="html=1;outlineConnect=0;whiteSpace=wrap;fillColor=#d5e8d4;shape=mxgraph.archimate3.service;strokeColor=#82b366;" vertex="1" parent="1">
          <mxGeometry x="1330" y="245" width="230" height="35" as="geometry" />
        </mxCell>
        <mxCell id="gI_HUv2wped4B2F6I5z_-37" value="" style="html=1;outlineConnect=0;whiteSpace=wrap;fillColor=#99ffff;shape=mxgraph.archimate3.application;appType=serv;archiType=rounded" vertex="1" parent="1">
          <mxGeometry x="1165" y="570" width="995" height="1070" as="geometry" />
        </mxCell>
        <mxCell id="gI_HUv2wped4B2F6I5z_-38" value="Execution phase" style="text;html=1;strokeColor=none;fillColor=none;align=center;verticalAlign=middle;whiteSpace=wrap;rounded=0;" vertex="1" parent="1">
          <mxGeometry x="1310" y="585" width="170" height="30" as="geometry" />
        </mxCell>
        <mxCell id="gI_HUv2wped4B2F6I5z_-42" value="Global object" style="html=1;outlineConnect=0;whiteSpace=wrap;fillColor=#d5e8d4;shape=mxgraph.archimate3.service;strokeColor=#82b366;" vertex="1" parent="1">
          <mxGeometry x="1300" y="630" width="190" height="35" as="geometry" />
        </mxCell>
        <mxCell id="gI_HUv2wped4B2F6I5z_-43" value="This and bind" style="html=1;outlineConnect=0;whiteSpace=wrap;fillColor=#d5e8d4;shape=mxgraph.archimate3.service;strokeColor=#82b366;" vertex="1" parent="1">
          <mxGeometry x="1300" y="670" width="190" height="35" as="geometry" />
        </mxCell>
        <mxCell id="gI_HUv2wped4B2F6I5z_-44" value="&amp;nbsp;x = 10" style="html=1;outlineConnect=0;whiteSpace=wrap;fillColor=#d5e8d4;shape=mxgraph.archimate3.service;strokeColor=#82b366;" vertex="1" parent="1">
          <mxGeometry x="1300" y="712.5" width="190" height="35" as="geometry" />
        </mxCell>
        <mxCell id="gI_HUv2wped4B2F6I5z_-45" value="calculate(argument)" style="html=1;outlineConnect=0;whiteSpace=wrap;fillColor=#d5e8d4;shape=mxgraph.archimate3.service;strokeColor=#82b366;" vertex="1" parent="1">
          <mxGeometry x="1300" y="760" width="190" height="35" as="geometry" />
        </mxCell>
        <mxCell id="gI_HUv2wped4B2F6I5z_-58" style="edgeStyle=orthogonalEdgeStyle;rounded=0;orthogonalLoop=1;jettySize=auto;html=1;" edge="1" parent="1" source="gI_HUv2wped4B2F6I5z_-46" target="gI_HUv2wped4B2F6I5z_-56">
          <mxGeometry relative="1" as="geometry" />
        </mxCell>
        <mxCell id="gI_HUv2wped4B2F6I5z_-46" value="y=calculate(argument)" style="html=1;outlineConnect=0;whiteSpace=wrap;fillColor=#d5e8d4;shape=mxgraph.archimate3.service;strokeColor=#82b366;" vertex="1" parent="1">
          <mxGeometry x="1300" y="810" width="190" height="35" as="geometry" />
        </mxCell>
        <mxCell id="gI_HUv2wped4B2F6I5z_-54" value="alt" style="html=1;shape=mxgraph.sysml.actParamNode;align=left;spacingLeft=15;verticalAlign=top;spacingTop=-3;" vertex="1" parent="1">
          <mxGeometry x="1240" y="1080" width="340" height="320" as="geometry" />
        </mxCell>
        <mxCell id="gI_HUv2wped4B2F6I5z_-59" style="edgeStyle=orthogonalEdgeStyle;rounded=0;orthogonalLoop=1;jettySize=auto;html=1;" edge="1" parent="1" source="gI_HUv2wped4B2F6I5z_-56" target="gI_HUv2wped4B2F6I5z_-54">
          <mxGeometry relative="1" as="geometry" />
        </mxCell>
        <mxCell id="gI_HUv2wped4B2F6I5z_-56" value="each call of function" style="rhombus;whiteSpace=wrap;html=1;" vertex="1" parent="1">
          <mxGeometry x="1320" y="950" width="160" height="80" as="geometry" />
        </mxCell>
        <mxCell id="gI_HUv2wped4B2F6I5z_-60" value="Function execution context" style="text;html=1;strokeColor=none;fillColor=none;align=center;verticalAlign=middle;whiteSpace=wrap;rounded=0;" vertex="1" parent="1">
          <mxGeometry x="1320" y="1110" width="170" height="30" as="geometry" />
        </mxCell>
        <mxCell id="gI_HUv2wped4B2F6I5z_-61" value="Global object with arguments" style="html=1;outlineConnect=0;whiteSpace=wrap;fillColor=#d5e8d4;shape=mxgraph.archimate3.service;strokeColor=#82b366;" vertex="1" parent="1">
          <mxGeometry x="1305" y="1140" width="190" height="35" as="geometry" />
        </mxCell>
        <mxCell id="gI_HUv2wped4B2F6I5z_-62" value="this" style="html=1;outlineConnect=0;whiteSpace=wrap;fillColor=#d5e8d4;shape=mxgraph.archimate3.service;strokeColor=#82b366;" vertex="1" parent="1">
          <mxGeometry x="1305" y="1190" width="190" height="35" as="geometry" />
        </mxCell>
        <mxCell id="gI_HUv2wped4B2F6I5z_-63" value="a;undefined" style="html=1;outlineConnect=0;whiteSpace=wrap;fillColor=#d5e8d4;shape=mxgraph.archimate3.service;strokeColor=#82b366;" vertex="1" parent="1">
          <mxGeometry x="1305" y="1240" width="190" height="35" as="geometry" />
        </mxCell>
        <mxCell id="gI_HUv2wped4B2F6I5z_-70" style="edgeStyle=orthogonalEdgeStyle;rounded=0;orthogonalLoop=1;jettySize=auto;html=1;entryX=0;entryY=0;entryDx=190;entryDy=17.5;entryPerimeter=0;" edge="1" parent="1" source="gI_HUv2wped4B2F6I5z_-65" target="gI_HUv2wped4B2F6I5z_-45">
          <mxGeometry relative="1" as="geometry" />
        </mxCell>
        <mxCell id="gI_HUv2wped4B2F6I5z_-65" value="alt" style="html=1;shape=mxgraph.sysml.actParamNode;align=left;spacingLeft=15;verticalAlign=top;spacingTop=-3;" vertex="1" parent="1">
          <mxGeometry x="1740" y="1080" width="340" height="320" as="geometry" />
        </mxCell>
        <mxCell id="gI_HUv2wped4B2F6I5z_-66" value="Function execution context" style="text;html=1;strokeColor=none;fillColor=none;align=center;verticalAlign=middle;whiteSpace=wrap;rounded=0;" vertex="1" parent="1">
          <mxGeometry x="1830" y="1100" width="170" height="30" as="geometry" />
        </mxCell>
        <mxCell id="gI_HUv2wped4B2F6I5z_-67" value="Global object with arguments" style="html=1;outlineConnect=0;whiteSpace=wrap;fillColor=#d5e8d4;shape=mxgraph.archimate3.service;strokeColor=#82b366;" vertex="1" parent="1">
          <mxGeometry x="1830" y="1134" width="190" height="35" as="geometry" />
        </mxCell>
        <mxCell id="gI_HUv2wped4B2F6I5z_-68" value="this" style="html=1;outlineConnect=0;whiteSpace=wrap;fillColor=#d5e8d4;shape=mxgraph.archimate3.service;strokeColor=#82b366;" vertex="1" parent="1">
          <mxGeometry x="1830" y="1180" width="190" height="35" as="geometry" />
        </mxCell>
        <mxCell id="gI_HUv2wped4B2F6I5z_-69" value="a;10" style="html=1;outlineConnect=0;whiteSpace=wrap;fillColor=#d5e8d4;shape=mxgraph.archimate3.service;strokeColor=#82b366;" vertex="1" parent="1">
          <mxGeometry x="1830" y="1225" width="190" height="35" as="geometry" />
        </mxCell>
      </root>
    </mxGraphModel>
  </diagram>
  <diagram id="QsbK7QeUSHA9_xgPrPnp" name="call-stack">
    <mxGraphModel dx="917" dy="470" grid="1" gridSize="10" guides="1" tooltips="1" connect="1" arrows="1" fold="1" page="1" pageScale="1" pageWidth="827" pageHeight="1169" math="0" shadow="0">
      <root>
        <mxCell id="0" />
        <mxCell id="1" parent="0" />
        <mxCell id="RS6Jzj9EvD3YIltoihV9-22" value="Push to stack" style="shape=folder;spacingTop=10;tabWidth=100;tabHeight=25;tabPosition=left;html=1;dashed=1;" vertex="1" parent="1">
          <mxGeometry x="10" y="575" width="150" height="105" as="geometry" />
        </mxCell>
        <mxCell id="RS6Jzj9EvD3YIltoihV9-10" style="edgeStyle=orthogonalEdgeStyle;rounded=0;orthogonalLoop=1;jettySize=auto;html=1;" edge="1" parent="1" source="oM8aHoMlJBCY-eEFTppY-17" target="RS6Jzj9EvD3YIltoihV9-9">
          <mxGeometry relative="1" as="geometry" />
        </mxCell>
        <mxCell id="oM8aHoMlJBCY-eEFTppY-17" value="" style="verticalAlign=top;align=left;spacingTop=8;spacingLeft=2;spacingRight=12;shape=cube;size=10;direction=south;fontStyle=4;html=1;whiteSpace=wrap;" vertex="1" parent="1">
          <mxGeometry x="20" y="700" width="460" height="400" as="geometry" />
        </mxCell>
        <mxCell id="oM8aHoMlJBCY-eEFTppY-2" value="&lt;font style=&quot;font-size: 17px;&quot;&gt;To keep track of all the execution contexts, including the global execution context and function execution contexts, the JavaScript engine uses the call stack&lt;/font&gt;" style="rounded=0;whiteSpace=wrap;html=1;fillColor=#ffe6cc;strokeColor=#d79b00;" vertex="1" parent="1">
          <mxGeometry x="210" y="80" width="466" height="160" as="geometry" />
        </mxCell>
        <mxCell id="oM8aHoMlJBCY-eEFTppY-6" value="Actor" style="shape=umlActor;verticalLabelPosition=bottom;verticalAlign=top;html=1;outlineConnect=0;" vertex="1" parent="1">
          <mxGeometry x="218" y="370" width="30" height="60" as="geometry" />
        </mxCell>
        <mxCell id="oM8aHoMlJBCY-eEFTppY-7" value="" style="shape=image;html=1;verticalAlign=top;verticalLabelPosition=bottom;labelBackgroundColor=#ffffff;imageAspect=0;aspect=fixed;image=https://cdn1.iconfinder.com/data/icons/iconoir-vol-3/24/question-mark-128.png" vertex="1" parent="1">
          <mxGeometry x="180" y="340" width="38" height="38" as="geometry" />
        </mxCell>
        <mxCell id="oM8aHoMlJBCY-eEFTppY-8" value="&lt;font style=&quot;font-size: 18px;&quot;&gt;what&#39;s a call stack&lt;/font&gt;" style="whiteSpace=wrap;html=1;shape=mxgraph.basic.cloud_callout;fillColor=#f8cecc;strokeColor=#b85450;" vertex="1" parent="1">
          <mxGeometry x="240" y="270" width="280" height="90" as="geometry" />
        </mxCell>
        <mxCell id="oM8aHoMlJBCY-eEFTppY-10" style="edgeStyle=orthogonalEdgeStyle;rounded=0;orthogonalLoop=1;jettySize=auto;html=1;" edge="1" parent="1" source="oM8aHoMlJBCY-eEFTppY-9">
          <mxGeometry relative="1" as="geometry">
            <mxPoint x="510" y="440" as="targetPoint" />
          </mxGeometry>
        </mxCell>
        <mxCell id="oM8aHoMlJBCY-eEFTppY-15" style="edgeStyle=orthogonalEdgeStyle;rounded=0;orthogonalLoop=1;jettySize=auto;html=1;" edge="1" parent="1" source="oM8aHoMlJBCY-eEFTppY-9">
          <mxGeometry relative="1" as="geometry">
            <mxPoint x="166" y="680" as="targetPoint" />
          </mxGeometry>
        </mxCell>
        <mxCell id="oM8aHoMlJBCY-eEFTppY-9" value="&lt;font style=&quot;font-size: 17px;&quot;&gt;The call stack is the manager of the execution context&lt;/font&gt;" style="verticalAlign=top;align=left;spacingTop=8;spacingLeft=2;spacingRight=12;shape=cube;size=10;direction=south;fontStyle=4;html=1;whiteSpace=wrap;" vertex="1" parent="1">
          <mxGeometry x="10" y="490" width="312" height="70" as="geometry" />
        </mxCell>
        <mxCell id="oM8aHoMlJBCY-eEFTppY-12" style="edgeStyle=orthogonalEdgeStyle;rounded=0;orthogonalLoop=1;jettySize=auto;html=1;" edge="1" parent="1" source="oM8aHoMlJBCY-eEFTppY-11">
          <mxGeometry relative="1" as="geometry">
            <mxPoint x="620" y="390" as="targetPoint" />
          </mxGeometry>
        </mxCell>
        <mxCell id="oM8aHoMlJBCY-eEFTppY-11" value="" style="outlineConnect=0;dashed=0;verticalLabelPosition=bottom;verticalAlign=top;align=center;html=1;shape=mxgraph.aws3.global_secondary_index;fillColor=#2E73B8;gradientColor=none;" vertex="1" parent="1">
          <mxGeometry x="480" y="370" width="67.5" height="66" as="geometry" />
        </mxCell>
        <mxCell id="oM8aHoMlJBCY-eEFTppY-13" value="LAST IN FIRST OUT" style="rounded=0;whiteSpace=wrap;html=1;glass=1;sketch=1;curveFitting=1;jiggle=2;fillColor=#ffe6cc;strokeColor=#d79b00;strokeWidth=3;" vertex="1" parent="1">
          <mxGeometry x="630" y="360" width="120" height="60" as="geometry" />
        </mxCell>
        <mxCell id="oM8aHoMlJBCY-eEFTppY-16" value="Global execution context" style="html=1;outlineConnect=0;whiteSpace=wrap;fillColor=#99ffff;shape=mxgraph.archimate3.application;appType=comp;archiType=square;" vertex="1" parent="1">
          <mxGeometry x="100" y="1030" width="322" height="50" as="geometry" />
        </mxCell>
        <mxCell id="oM8aHoMlJBCY-eEFTppY-18" value="STACK" style="rounded=0;whiteSpace=wrap;html=1;" vertex="1" parent="1">
          <mxGeometry x="60" y="690" width="370" height="60" as="geometry" />
        </mxCell>
        <mxCell id="RS6Jzj9EvD3YIltoihV9-1" value="average()" style="html=1;outlineConnect=0;whiteSpace=wrap;fillColor=#99ffff;shape=mxgraph.archimate3.application;appType=comp;archiType=square;" vertex="1" parent="1">
          <mxGeometry x="100" y="970" width="322" height="50" as="geometry" />
        </mxCell>
        <mxCell id="RS6Jzj9EvD3YIltoihV9-2" value="add()" style="html=1;outlineConnect=0;whiteSpace=wrap;fillColor=#99ffff;shape=mxgraph.archimate3.application;appType=comp;archiType=square;" vertex="1" parent="1">
          <mxGeometry x="100" y="910" width="322" height="50" as="geometry" />
        </mxCell>
        <mxCell id="RS6Jzj9EvD3YIltoihV9-16" style="edgeStyle=orthogonalEdgeStyle;rounded=0;orthogonalLoop=1;jettySize=auto;html=1;" edge="1" parent="1" source="RS6Jzj9EvD3YIltoihV9-4" target="RS6Jzj9EvD3YIltoihV9-12">
          <mxGeometry relative="1" as="geometry" />
        </mxCell>
        <mxCell id="RS6Jzj9EvD3YIltoihV9-4" value="" style="verticalAlign=top;align=left;spacingTop=8;spacingLeft=2;spacingRight=12;shape=cube;size=10;direction=south;fontStyle=4;html=1;whiteSpace=wrap;" vertex="1" parent="1">
          <mxGeometry x="640" y="700" width="460" height="400" as="geometry" />
        </mxCell>
        <mxCell id="RS6Jzj9EvD3YIltoihV9-5" value="STACK" style="rounded=0;whiteSpace=wrap;html=1;" vertex="1" parent="1">
          <mxGeometry x="676" y="680" width="370" height="60" as="geometry" />
        </mxCell>
        <mxCell id="RS6Jzj9EvD3YIltoihV9-6" value="Global execution context" style="html=1;outlineConnect=0;whiteSpace=wrap;fillColor=#99ffff;shape=mxgraph.archimate3.application;appType=comp;archiType=square;" vertex="1" parent="1">
          <mxGeometry x="720" y="1040" width="322" height="50" as="geometry" />
        </mxCell>
        <mxCell id="RS6Jzj9EvD3YIltoihV9-7" value="average()" style="html=1;outlineConnect=0;whiteSpace=wrap;fillColor=#99ffff;shape=mxgraph.archimate3.application;appType=comp;archiType=square;" vertex="1" parent="1">
          <mxGeometry x="720" y="980" width="322" height="50" as="geometry" />
        </mxCell>
        <mxCell id="RS6Jzj9EvD3YIltoihV9-11" style="edgeStyle=orthogonalEdgeStyle;rounded=0;orthogonalLoop=1;jettySize=auto;html=1;entryX=0;entryY=0;entryDx=205;entryDy=460;entryPerimeter=0;" edge="1" parent="1" source="RS6Jzj9EvD3YIltoihV9-9" target="RS6Jzj9EvD3YIltoihV9-4">
          <mxGeometry relative="1" as="geometry" />
        </mxCell>
        <mxCell id="RS6Jzj9EvD3YIltoihV9-9" value="add exectured pops it off" style="html=1;outlineConnect=0;whiteSpace=wrap;fillColor=#99ffff;shape=mxgraph.archimate3.function;" vertex="1" parent="1">
          <mxGeometry x="530" y="870" width="75" height="130" as="geometry" />
        </mxCell>
        <mxCell id="RS6Jzj9EvD3YIltoihV9-17" value="" style="edgeStyle=orthogonalEdgeStyle;rounded=0;orthogonalLoop=1;jettySize=auto;html=1;" edge="1" parent="1" source="RS6Jzj9EvD3YIltoihV9-12" target="RS6Jzj9EvD3YIltoihV9-13">
          <mxGeometry relative="1" as="geometry" />
        </mxCell>
        <mxCell id="RS6Jzj9EvD3YIltoihV9-12" value="average exectued" style="html=1;outlineConnect=0;whiteSpace=wrap;fillColor=#99ffff;shape=mxgraph.archimate3.function;" vertex="1" parent="1">
          <mxGeometry x="1203" y="840" width="75" height="130" as="geometry" />
        </mxCell>
        <mxCell id="RS6Jzj9EvD3YIltoihV9-23" style="edgeStyle=orthogonalEdgeStyle;rounded=0;orthogonalLoop=1;jettySize=auto;html=1;" edge="1" parent="1" source="RS6Jzj9EvD3YIltoihV9-13">
          <mxGeometry relative="1" as="geometry">
            <mxPoint x="2010" y="880" as="targetPoint" />
          </mxGeometry>
        </mxCell>
        <mxCell id="RS6Jzj9EvD3YIltoihV9-13" value="" style="verticalAlign=top;align=left;spacingTop=8;spacingLeft=2;spacingRight=12;shape=cube;size=10;direction=south;fontStyle=4;html=1;whiteSpace=wrap;" vertex="1" parent="1">
          <mxGeometry x="1375" y="680" width="460" height="400" as="geometry" />
        </mxCell>
        <mxCell id="RS6Jzj9EvD3YIltoihV9-14" value="STACK" style="rounded=0;whiteSpace=wrap;html=1;" vertex="1" parent="1">
          <mxGeometry x="1420" y="660" width="370" height="60" as="geometry" />
        </mxCell>
        <mxCell id="RS6Jzj9EvD3YIltoihV9-18" value="Global execution context" style="html=1;outlineConnect=0;whiteSpace=wrap;fillColor=#99ffff;shape=mxgraph.archimate3.application;appType=comp;archiType=square;" vertex="1" parent="1">
          <mxGeometry x="1460" y="1020" width="322" height="50" as="geometry" />
        </mxCell>
        <mxCell id="RS6Jzj9EvD3YIltoihV9-24" value="" style="shape=umlDestroy;whiteSpace=wrap;html=1;strokeWidth=3;targetShapes=umlLifeline;" vertex="1" parent="1">
          <mxGeometry x="2010" y="865" width="30" height="30" as="geometry" />
        </mxCell>
      </root>
    </mxGraphModel>
  </diagram>
</mxfile>
